<svg height="512pt" viewBox="0 0 512 512" width="512pt" xmlns="http://www.w3.org/2000/svg"><path d="m512 256c0 141.386719-114.613281 256-256 256s-256-114.613281-256-256 114.613281-256 256-256 256 114.613281 256 256zm0 0" fill="#ff7045"/><path d="m403.28125 224.28125-10.886719 6.308594-100.316406-100.316406-192.382813 195.800781 184.386719 184.386719c105.328125-11.496094 191.449219-86.875 218.800781-186.578126zm0 0" fill="#de4726"/><path d="m334.53125 229.53125c0 75.8125-61.457031 137.269531-137.265625 137.269531s-137.265625-61.457031-137.265625-137.269531c0-75.808594 61.457031-137.265625 137.265625-137.265625s137.265625 61.457031 137.265625 137.265625zm0 0" fill="#fff"/><path d="m197.265625 92.265625h-.003906v274.535156h.003906c75.808594 0 137.265625-61.457031 137.265625-137.269531 0-75.808594-61.457031-137.265625-137.265625-137.265625zm0 0" fill="#dce1eb"/><path d="m256.890625 200.816406c0 32.929688-26.695313 59.625-59.625 59.625s-59.625-26.695312-59.625-59.625c0-32.929687 26.695313-59.625 59.625-59.625s59.625 26.695313 59.625 59.625zm0 0" fill="#ffbeaa"/><path d="m197.265625 141.191406h-.003906v119.25h.003906c32.929687 0 59.625-26.695312 59.625-59.625 0-32.929687-26.695313-59.625-59.625-59.625zm0 0" fill="#e09380"/><path d="m102.453125 328.792969c24.644531 23.546875 58.039063 38.007812 94.8125 38.007812s70.167969-14.464843 94.8125-38.007812c-15.097656-37.570313-51.839844-64.113281-94.8125-64.113281-42.96875 0-79.710937 26.542968-94.8125 64.113281zm0 0" fill="#ffce00"/><path d="m292.078125 328.792969c-15.097656-37.570313-51.839844-64.113281-94.8125-64.113281h-.003906v102.117187h.003906c36.773437.003906 70.167969-14.460937 94.8125-38.003906zm0 0" fill="#ffb600"/><path d="m438.652344 304.785156c0 60.375-48.941406 109.320313-109.316406 109.320313s-109.316407-48.945313-109.316407-109.320313c0-60.371094 48.941407-109.316406 109.316407-109.316406s109.316406 48.945312 109.316406 109.316406zm0 0" fill="#4a7aff"/><path d="m438.652344 304.785156c0-60.347656-48.90625-109.277344-109.246094-109.3125v218.628906c60.339844-.035156 109.246094-48.964843 109.246094-109.316406zm0 0" fill="#0053bf"/><path d="m406.515625 304.785156c0 42.625-34.554687 77.179688-77.179687 77.179688s-77.179688-34.554688-77.179688-77.179688c0-42.621094 34.554688-77.175781 77.179688-77.175781s77.179687 34.554687 77.179687 77.175781zm0 0" fill="#fff"/><path d="m406.515625 304.785156c0-42.597656-34.519531-77.136718-77.109375-77.175781v154.355469c42.589844-.039063 77.109375-34.578125 77.109375-77.179688zm0 0" fill="#dce1eb"/><path d="m342.335938 321.269531h-46.992188v-26h20.992188v-35.980469h26zm0 0" fill="#555a66"/><path d="m329.40625 259.289062h12.929688v61.980469h-12.929688zm0 0" fill="#333940"/></svg>