<svg id="Capa_1" enable-background="new 0 0 512 512" height="512" viewBox="0 0 512 512" width="512" xmlns="http://www.w3.org/2000/svg"><g><g><g><g><g><g><g><g><g><g><circle cx="256" cy="256" fill="#ff6c52" r="256"/></g></g></g></g></g></g></g></g></g><path d="m511.62 270.075-172.456-172.456-261.037 328.398 54.159 54.159c36.67 20.28 78.844 31.824 123.714 31.824 136.662 0 248.313-107.086 255.62-241.925z" fill="#f92814"/><g><path d="m78.127 97.619h261.037v328.398h-261.037z" fill="#fff"/></g><g><path d="m206.12 97.619h133.044v328.397h-133.044z" fill="#e9edf5"/></g><g><path d="m111.032 137.492h39.747v39.747h-39.747z" fill="#ffce00"/></g><g fill="#afb4c8"><path d="m206.12 147.265h95.703v29.973h-95.703z"/><path d="m178.22 147.265h27.9v29.973h-27.9z"/></g><g><g><path d="m111.032 207.716h39.747v39.747h-39.747z" fill="#ffce00"/></g><g fill="#afb4c8"><path d="m178.22 217.49h27.9v29.973h-27.9z"/><path d="m206.12 217.49h95.703v29.973h-95.703z"/></g></g><g><g><path d="m111.032 277.941h39.747v39.747h-39.747z" fill="#ffce00"/></g><g fill="#afb4c8"><path d="m206.12 287.715h95.703v29.973h-95.703z"/><path d="m178.22 287.715h27.9v29.973h-27.9z"/></g></g><g><g><path d="m111.032 348.165h39.747v39.747h-39.747z" fill="#ffce00"/></g><g><path d="m178.22 357.939h123.603v29.973h-123.603z" fill="#afb4c8"/></g><g><path d="m206.12 147.265h95.703v29.973h-95.703z" fill="#7e8596"/></g><g><path d="m206.12 217.49h95.703v29.973h-95.703z" fill="#7e8596"/></g><g><path d="m206.12 287.715h95.703v29.973h-95.703z" fill="#7e8596"/></g><g><path d="m206.12 357.939h95.703v29.973h-95.703z" fill="#7e8596"/></g></g><g><circle cx="332.344" cy="299.199" fill="#555a66" r="120.489"/></g><g><path d="m332.344 178.71c-.107 0-.213.004-.32.004v240.97c.107 0 .213.004.32.004 66.544 0 120.489-53.945 120.489-120.489s-53.945-120.489-120.489-120.489z" fill="#333940"/></g><g><circle cx="332.344" cy="299.199" fill="#fff" r="85.524"/></g><g><path d="m332.344 213.675c-.107 0-.213.008-.32.008v171.032c.107 0 .213.008.32.008 47.234 0 85.524-38.291 85.524-85.524s-38.29-85.524-85.524-85.524z" fill="#e9edf5"/></g><g><path d="m347.344 314.199h-60.382v-30h30.382v-51.723h30z" fill="#707789"/></g><g><path d="m332.024 232.476h15.32v81.723h-15.32z" fill="#555a66"/></g></g></svg>